<?xml version="1.0" encoding="utf-8"?>
<!-- Generator: Adobe Illustrator 24.1.0, SVG Export Plug-In . SVG Version: 6.00 Build 0)  -->
<svg version="1.1" id="Layer_1" xmlns="http://www.w3.org/2000/svg" xmlns:xlink="http://www.w3.org/1999/xlink" x="0px" y="0px"
	 viewBox="0 0 370 80" style="enable-background:new 0 0 370 80;" xml:space="preserve">
<style type="text/css">
	.st0{fill:#FFFFFF;}
</style>
<g>
	<g>
		<path class="st0" d="M17.3,33.3c-1.3,0-2.6-0.5-3.5-1.5c-1.9-2-1.9-5.1,0-7.1L37,1.6c1.9-2,5.1-2,7.1,0c1.9,2,1.9,5.1,0,7.1
			L20.8,31.9C19.9,32.8,18.6,33.3,17.3,33.3z"/>
		<path class="st0" d="M42,26.7c-1.9-2-1.9-5.1,0-7.1l6.6-6.6c2-2,5.2-2,7.1,0.1c1.9,2,1.8,5.2-0.2,7.1l-6.5,6.5
			C47.1,28.7,44,28.7,42,26.7L42,26.7z"/>
		<path class="st0" d="M17.1,56.6c-1.3,0-2.6-0.5-3.5-1.5c-1.9-2-1.9-5.1,0-7.1l16.9-16.9c1.9-2,5.1-2,7.1,0c1.9,2,1.9,5.1,0,7.1
			L20.7,55.1C19.7,56.1,18.4,56.6,17.1,56.6z"/>
		<path class="st0" d="M28.7,68.1c-1.3,0-2.6-0.5-3.5-1.5c-1.9-2-1.9-5.1,0-7.1l7.2-7.2c1.9-2,5.1-2,7.1,0c1.9,2,1.9,5.1,0,7.1
			l-7.2,7.2C31.2,67.6,30,68.1,28.7,68.1z"/>
		<path class="st0" d="M47.4,49.4c-1.3,0-2.6-0.5-3.5-1.5c-1.9-2-1.9-5.1,0-7.1l16.3-16.3c1.9-2,5.1-2,7.1,0c1.9,2,1.9,5.1,0,7.1
			L50.9,47.9C50,48.9,48.7,49.4,47.4,49.4z"/>
		
			<ellipse transform="matrix(7.088893e-02 -0.9975 0.9975 7.088893e-02 -34.4173 42.7699)" class="st0" cx="5.8" cy="39.9" rx="5" ry="5"/>
		<path class="st0" d="M40.1,79.9c-1.3,0-2.6-0.5-3.5-1.5c-1.9-2-1.9-5.1,0-7.1l23.6-23.6c1.9-2,5.1-2,7.1,0c1.9,2,1.9,5.1,0,7.1
			L43.7,78.4C42.7,79.4,41.4,79.9,40.1,79.9z"/>
		<circle class="st0" cx="75.3" cy="39.8" r="5"/>
	</g>
	<g>
		<g>
			<path class="st0" d="M103,52.4c-2.2-1.2-3.9-2.9-5.1-5.1c-1.2-2.2-1.7-4.6-1.7-7.4c0-2.9,0.6-5.4,1.8-7.5
				c1.2-2.1,2.9-3.8,5.1-4.9s4.9-1.7,7.9-1.7c3,0,5.7,0.6,7.9,1.7c2.2,1.2,3.9,2.8,5.1,4.9c1.2,2.1,1.8,4.6,1.8,7.4
				c0,2.9-0.6,5.4-1.8,7.5s-3,3.9-5.2,5c-2.2,1.2-4.8,1.8-7.8,1.8C107.9,54.2,105.2,53.6,103,52.4z M114.5,46.4
				c1-0.6,1.7-1.5,2.2-2.6c0.5-1.1,0.7-2.4,0.7-3.9c0-1.4-0.3-2.7-0.8-3.8c-0.5-1.1-1.3-2-2.2-2.5c-1-0.6-2.1-0.9-3.3-0.9
				c-1.3,0-2.4,0.3-3.4,0.9s-1.7,1.5-2.2,2.5s-0.8,2.4-0.8,3.8c0,1.5,0.3,2.8,0.8,3.9s1.3,2,2.2,2.6c1,0.6,2.1,0.9,3.4,0.9
				C112.4,47.4,113.5,47.1,114.5,46.4z"/>
			<path class="st0" d="M129.5,31.9h6c0.4,0,0.7,0.3,0.8,0.7l1.6,8.8c0.3,1.4,0.5,3.2,0.8,5.4c0.2-1.7,0.5-3.4,0.8-5.3l1.8-8.8
				c0.1-0.4,0.4-0.6,0.8-0.6h7.1c0.4,0,0.7,0.3,0.8,0.7l1.7,8.8c0.3,1.6,0.6,3.4,0.8,5.3c0.2-1.5,0.5-3.2,0.9-5.3l1.8-8.8
				c0.1-0.4,0.4-0.6,0.8-0.6h5.3c0.5,0,0.9,0.5,0.8,1l-4.8,20.2c-0.1,0.4-0.4,0.6-0.8,0.6h-7.6c-0.4,0-0.7-0.3-0.8-0.7l-1.8-9.3
				c-0.3-1.3-0.5-2.7-0.8-4.2c-0.1,1-0.4,2.4-0.7,4.2l-1.9,9.3c-0.1,0.4-0.4,0.6-0.8,0.6h-7.7c-0.4,0-0.7-0.3-0.8-0.6l-4.9-20.2
				C128.6,32.4,129,31.9,129.5,31.9z"/>
			<path class="st0" d="M166.2,36.8c0-0.9,0-1.8-0.1-2.7c0-0.5,0-0.9-0.1-1.3c0-0.5,0.3-0.9,0.8-0.9h5.8c0.4,0,0.8,0.3,0.8,0.7
				c0,0.3,0.1,0.7,0.1,1.1c0.1,0.8,0.1,1.4,0.1,1.8h0.1c0.8-1.4,1.7-2.4,2.9-3c1.1-0.6,2.5-1,4.1-1c2.5,0,4.3,0.7,5.4,2.2
				s1.7,3.5,1.7,6V53c0,0.5-0.4,0.8-0.8,0.8h-6c-0.5,0-0.8-0.4-0.8-0.8V41.9c0-1.3-0.2-2.3-0.7-2.9c-0.4-0.7-1.2-1-2.2-1
				c-1.1,0-2,0.4-2.6,1.2s-0.9,1.9-0.9,3.3V53c0,0.5-0.4,0.8-0.8,0.8h-6c-0.5,0-0.8-0.4-0.8-0.8L166.2,36.8L166.2,36.8z"/>
			<path class="st0" d="M193.9,26.2h6.4c0.5,0,0.8,0.4,0.8,0.8v26c0,0.5-0.4,0.8-0.8,0.8h-6.4c-0.5,0-0.8-0.4-0.8-0.8V27
				C193,26.5,193.4,26.2,193.9,26.2z"/>
			<path class="st0" d="M206.8,27c0-0.5,0.4-0.8,0.8-0.8h10.7c4.9,0,8.6,1.1,11.1,3.4s3.8,5.6,3.8,10.2c0,3-0.6,5.5-1.8,7.6
				c-1.2,2.1-2.9,3.7-5.1,4.8c-2.2,1.1-4.8,1.6-7.7,1.6h-11c-0.5,0-0.8-0.4-0.8-0.8L206.8,27L206.8,27z M218.3,47.1
				c2.2,0,3.9-0.6,5-1.9c1.1-1.2,1.7-3,1.7-5.4c0-2.3-0.6-4-1.7-5.2c-1.1-1.2-2.9-1.8-5.2-1.8h-3.3v14.3L218.3,47.1L218.3,47.1z"/>
		</g>
		<g>
			<path class="st0" d="M253.8,53.3c-1.1-0.6-2-1.4-2.6-2.6h0c0,0.6,0,1.2-0.1,1.8c0,0.7-0.1,1.1-0.1,1.2h-3.4c0-0.4,0-1,0.1-1.8
				s0-1.6,0-2.6V24.7h3.5V33c0,0.6,0,1.1,0,1.7s0,0.8,0,1h0.1c0.8-1.2,1.7-2.1,2.9-2.6s2.5-0.8,4-0.8c1.7,0,3.2,0.4,4.4,1.3
				c1.2,0.9,2.2,2.1,2.8,3.7c0.6,1.6,1,3.6,1,5.9c0,2.3-0.3,4.3-1,6s-1.6,2.9-2.9,3.8c-1.3,0.9-2.8,1.3-4.5,1.3
				C256.2,54.1,254.9,53.9,253.8,53.3z M261,49.1c1-1.3,1.5-3.3,1.5-6c0-2.6-0.5-4.5-1.4-5.8c-0.9-1.3-2.2-2-4-2
				c-1.1,0-2.1,0.3-3,0.8c-0.9,0.5-1.6,1.4-2.1,2.6c-0.5,1.2-0.8,2.8-0.8,4.6c0,1.7,0.2,3.2,0.8,4.3s1.2,2,2.1,2.6
				c0.9,0.6,1.9,0.8,3,0.8C258.8,51.1,260.1,50.5,261,49.1z"/>
			<path class="st0" d="M270.7,62c-0.4,0-0.7-0.1-1.1-0.2l0.2-2.9c0.5,0.1,0.9,0.1,1.4,0.1c2.2,0,3.9-1.5,5.2-4.6l0.3-0.8l-8.4-21.1
				h3.8l4.5,11.7c0.3,0.7,0.6,1.8,1.1,3.1s0.7,2.1,0.8,2.4c0-0.2,0.3-0.9,0.8-2.1c0.6-1.5,0.9-2.5,1.1-3l4.1-12.1h3.7L280,53.8
				c-0.7,1.9-1.4,3.4-2.1,4.6c-0.7,1.2-1.6,2.1-2.5,2.8s-2.1,1-3.4,1C271.5,62.1,271,62.1,270.7,62z"/>
			<path class="st0" d="M297.4,49.5l2.6-2.4c0.7,0.8,1.4,1.5,2,2c0.6,0.5,1.4,0.9,2.4,1.2c0.9,0.3,2.1,0.5,3.4,0.5
				c1.9,0,3.5-0.4,4.7-1.1s1.9-1.9,1.9-3.4c0-1-0.2-1.9-0.8-2.5s-1.2-1.1-2-1.4c-0.8-0.3-2-0.7-3.6-1.1c-0.2,0-0.6-0.1-1.1-0.3
				c-1.9-0.5-3.4-1-4.5-1.5c-1.1-0.5-2.1-1.3-2.9-2.3c-0.8-1-1.2-2.4-1.2-4.1c0-1.7,0.4-3.1,1.3-4.2c0.9-1.1,2-1.9,3.4-2.4
				c1.4-0.5,3-0.8,4.8-0.8c2.1,0,4,0.3,5.5,1s2.8,1.7,3.9,3l-2.6,2.4c-0.9-1-1.9-1.8-3-2.3s-2.4-0.8-3.9-0.8c-1.9,0-3.4,0.4-4.3,1.1
				c-1,0.7-1.5,1.7-1.5,2.9c0,0.9,0.2,1.7,0.7,2.3c0.5,0.6,1.1,1,1.9,1.3s1.8,0.7,3.2,1l0.8,0.2l1,0.3c1.9,0.5,3.4,1,4.5,1.6
				c1.1,0.5,2.1,1.3,2.8,2.3s1.1,2.4,1.1,4.1c0,1.6-0.4,3-1.2,4.2c-0.8,1.2-2,2.1-3.5,2.8s-3.4,1-5.6,1
				C303.1,54.1,299.7,52.6,297.4,49.5z"/>
			<path class="st0" d="M338.6,46.3h-12.1l-2.6,7.5H320l10.4-27.6h4.4L345,53.7h-3.8L338.6,46.3z M337.5,43l-3.3-9.4
				c-0.4-0.9-0.7-1.8-1-2.7c-0.3-0.9-0.5-1.5-0.6-1.9c-0.1,0.4-0.3,1.1-0.6,1.9c-0.3,0.9-0.6,1.8-1,2.6l-3.3,9.3L337.5,43L337.5,43z
				"/>
			<path class="st0" d="M349.1,26.2h10.4c2.1,0,3.9,0.4,5.4,1c1.5,0.7,2.5,1.7,3.3,2.9c0.7,1.2,1.1,2.7,1.1,4.4
				c0,1.7-0.4,3.1-1.1,4.4c-0.7,1.3-1.8,2.3-3.2,3.1c-1.4,0.8-3.2,1.1-5.2,1.1h-6.9v10.5h-3.7L349.1,26.2L349.1,26.2z M359.2,39.8
				c2.1,0,3.7-0.5,4.7-1.3c1-0.9,1.6-2.2,1.6-3.9c0-1.6-0.5-2.9-1.6-3.7c-1.1-0.9-2.7-1.3-4.8-1.3h-6.2v10.3L359.2,39.8L359.2,39.8z
				"/>
		</g>
	</g>
</g>
</svg>
