<svg xmlns="http://www.w3.org/2000/svg" width="24" height="24" viewBox="0 0 24 24">
  <path d="M7 4a1 1 0 0 0-1 1 1 1 0 1 1-2 0 3 3 0 0 1 3-3h10a3 3 0 0 1 3 3v2a1 1 0 1 1-2 0V5a1 1 0 0 0-1-1H7zM5 18a1 1 0 0 1 1 1 1 1 0 0 0 1 1h8a1 1 0 1 1 0 2H7a3 3 0 0 1-3-3 1 1 0 0 1 1-1z"/>
  <path d="M18 7a1 1 0 0 0-1.6-.8l-.4.3V21l1.6-1.2a1 1 0 0 0 .4-.8V7zm-2.8-2.4C17.178 3.117 20 4.528 20 7v12a3 3 0 0 1-1.2 2.4l-3.2 2.4A1 1 0 0 1 14 23V6a1 1 0 0 1 .4-.8l.8-.6zM4 12a1 1 0 0 1 1-1h6a1 1 0 1 1 0 2H5a1 1 0 0 1-1-1z"/>
  <path d="M5 15V9l-3 3 3 3z"/>
  <path d="M5.383 8.076A1 1 0 0 1 6 9v6a1 1 0 0 1-1.707.707l-3-3a1 1 0 0 1 0-1.414l3-3a1 1 0 0 1 1.09-.217z"/>
</svg>